<mxfile host="app.diagrams.net" modified="2023-10-01T19:28:25.904Z" agent="Mozilla/5.0 (X11; Linux x86_64) AppleWebKit/537.36 (KHTML, like Gecko) Chrome/114.0.0.0 Safari/537.36" etag="rW0fR_xQxgjgOc5Xxwrl" version="21.8.2" type="github">
  <diagram name="第 1 页" id="2Ufk5fkDjHKzW0VDnaV-">
    <mxGraphModel dx="992" dy="1754" grid="1" gridSize="10" guides="1" tooltips="1" connect="1" arrows="1" fold="1" page="1" pageScale="1" pageWidth="827" pageHeight="1169" math="0" shadow="0">
      <root>
        <mxCell id="0" />
        <mxCell id="1" parent="0" />
        <mxCell id="UsKzCVUeVz_9kSaV_GL8-1" value="&lt;p style=&quot;line-height: 0.96; margin-top: 0pt; margin-bottom: 1pt;&quot; dir=&quot;ltr&quot;&gt;&lt;br&gt;&lt;/p&gt;&lt;p style=&quot;line-height: 0.96; margin-top: 0pt; margin-bottom: 1pt;&quot; dir=&quot;ltr&quot;&gt;&lt;/p&gt;&lt;p style=&quot;line-height: 0.96; margin-left: 5.66929pt; margin-top: 0pt; margin-bottom: 1pt;&quot; dir=&quot;ltr&quot;&gt;&lt;/p&gt;&lt;p style=&quot;line-height: 0.96; margin-left: 5.66929pt; margin-top: 0pt; margin-bottom: 1pt;&quot; dir=&quot;ltr&quot;&gt;&lt;/p&gt;&lt;p style=&quot;line-height: 0.96; margin-left: 5.66929pt; margin-top: 0pt; margin-bottom: 1pt;&quot; dir=&quot;ltr&quot;&gt;&lt;/p&gt;&lt;p style=&quot;line-height: 0.96; margin-left: 14.1732pt; margin-top: 0pt; margin-bottom: 1pt;&quot; dir=&quot;ltr&quot;&gt;&lt;/p&gt;&lt;p style=&quot;line-height: 0.96; margin-left: 14.1732pt; margin-top: 0pt; margin-bottom: 1pt;&quot; dir=&quot;ltr&quot;&gt;&lt;/p&gt;&lt;p style=&quot;line-height: 0.96; margin-left: 14.1732pt; margin-top: 0pt; margin-bottom: 1pt;&quot; dir=&quot;ltr&quot;&gt;&lt;/p&gt;&lt;p style=&quot;line-height: 0.96; margin-left: 14.1732pt; margin-top: 0pt; margin-bottom: 1pt;&quot; dir=&quot;ltr&quot;&gt;&lt;/p&gt;&lt;p style=&quot;line-height: 0.96; margin-left: 14.1732pt; margin-top: 0pt; margin-bottom: 1pt;&quot; dir=&quot;ltr&quot;&gt;&lt;/p&gt;&lt;p style=&quot;line-height: 0.96; margin-left: 5.66929pt; margin-top: 0pt; margin-bottom: 1pt;&quot; dir=&quot;ltr&quot;&gt;&lt;br&gt;&lt;/p&gt;&lt;p style=&quot;line-height: 0.96; margin-top: 0pt; margin-bottom: 1pt;&quot; dir=&quot;ltr&quot;&gt;&lt;/p&gt;&lt;p style=&quot;line-height: 0.96; margin-top: 0pt; margin-bottom: 1pt;&quot; dir=&quot;ltr&quot;&gt;&lt;/p&gt;&lt;div&gt;&lt;/div&gt;&lt;span style=&quot;font-size: 9pt; background-color: transparent; font-variant-numeric: normal; font-variant-east-asian: normal; font-variant-alternates: normal; vertical-align: baseline;&quot;&gt;Please give your action to choose, as well as the reasons.&lt;/span&gt;&lt;p&gt;&lt;/p&gt;&lt;span style=&quot;font-size: 9pt; background-color: transparent; font-variant-numeric: normal; font-variant-east-asian: normal; font-variant-alternates: normal; vertical-align: baseline;&quot;&gt;Please consider the information above and make your action.&lt;/span&gt;&lt;p&gt;&lt;/p&gt;&lt;span style=&quot;font-size: 9pt; background-color: transparent; font-variant-numeric: normal; font-variant-east-asian: normal; font-variant-alternates: normal; vertical-align: baseline;&quot;&gt;4. The others share the same payoff matrixes and goal with you.&amp;nbsp;&lt;/span&gt;&lt;p&gt;&lt;/p&gt;&lt;span style=&quot;font-size: 9pt; background-color: transparent; font-variant-numeric: normal; font-variant-east-asian: normal; font-variant-alternates: normal; vertical-align: baseline;&quot;&gt;- If you are one of the m (m &amp;gt; 1) players who choose to &#39;defect&#39; and while the other n (n&amp;gt;0) players choose to &#39;cooperate&#39;, your payoff is 8.&lt;/span&gt;&lt;p&gt;&lt;/p&gt;&lt;span style=&quot;font-size: 9pt; background-color: transparent; font-variant-numeric: normal; font-variant-east-asian: normal; font-variant-alternates: normal; vertical-align: baseline;&quot;&gt;- If you choose to &#39;cooperate&#39; while any of other players choose to &#39;defect&#39;, your payoff is 0.&lt;/span&gt;&lt;p&gt;&lt;/p&gt;&lt;span style=&quot;font-size: 9pt; background-color: transparent; font-variant-numeric: normal; font-variant-east-asian: normal; font-variant-alternates: normal; vertical-align: baseline;&quot;&gt;- If you and all other players choose to &#39;defect&#39;, your payoff is 2.&lt;/span&gt;&lt;p&gt;&lt;/p&gt;&lt;span style=&quot;font-size: 9pt; background-color: transparent; font-variant-numeric: normal; font-variant-east-asian: normal; font-variant-alternates: normal; vertical-align: baseline;&quot;&gt;If you and all other players choose to &#39;cooperate&#39;, your payoff is 5.&lt;/span&gt;&lt;p&gt;&lt;/p&gt;&lt;span style=&quot;font-size: 9pt; background-color: transparent; font-variant-numeric: normal; font-variant-east-asian: normal; font-variant-alternates: normal; vertical-align: baseline;&quot;&gt;- If only you choose to &#39;defect&#39; while all other players choose to &#39;cooperate&#39;, your payoff is 10.&lt;/span&gt;&lt;p&gt;&lt;/p&gt;&lt;span style=&quot;font-size: 9pt; background-color: transparent; font-variant-numeric: normal; font-variant-east-asian: normal; font-variant-alternates: normal; vertical-align: baseline;&quot;&gt;3. Here are the payoff descriptions:&lt;/span&gt;&lt;p&gt;&lt;/p&gt;&lt;span style=&quot;font-size: 9pt; background-color: transparent; font-variant-numeric: normal; font-variant-east-asian: normal; font-variant-alternates: normal; vertical-align: baseline;&quot;&gt;2. Remember your goal is to maximize your own payoff. You should only care about your own interests.&lt;/span&gt;&lt;p&gt;&lt;/p&gt;&lt;span style=&quot;font-size: 9pt; background-color: transparent; font-variant-numeric: normal; font-variant-east-asian: normal; font-variant-alternates: normal; vertical-align: baseline;&quot;&gt;1. As a player, you can choose from: &#39;cooperate&#39;, &#39;defect&#39;.&lt;/span&gt;&lt;p&gt;&lt;/p&gt;&lt;span style=&quot;font-size: 9pt; background-color: transparent; font-variant-numeric: normal; font-variant-east-asian: normal; font-variant-alternates: normal; vertical-align: baseline;&quot;&gt;Here is what you need to know about the game:&lt;/span&gt;&lt;p&gt;&lt;/p&gt;&lt;span style=&quot;font-size: 9pt; background-color: transparent; font-variant-numeric: normal; font-variant-east-asian: normal; font-variant-alternates: normal; vertical-align: baseline;&quot;&gt;Welcome to the &#39;2-person Prisoner&#39;s Dilemma&#39; game!&lt;/span&gt;&lt;p&gt;&lt;/p&gt;&lt;span id=&quot;docs-internal-guid-2fc1a600-7fff-3519-10c1-b0d5a1ed9f6f&quot;&gt;&lt;/span&gt;" style="rounded=0;whiteSpace=wrap;html=1;fontFamily=Times New Roman;align=left;spacing=1;" vertex="1" parent="1">
          <mxGeometry x="160" y="-50" width="490" height="400" as="geometry" />
        </mxCell>
      </root>
    </mxGraphModel>
  </diagram>
</mxfile>
